<svg width="25" height="23" viewBox="0 0 25 23" fill="none" xmlns="http://www.w3.org/2000/svg">
<path fill-rule="evenodd" clip-rule="evenodd" d="M2.56019 5.75C1.14624 5.75 0 6.89624 0 8.31019V17C0 19.8284 0 21.2426 0.87868 22.1213C1.75736 23 3.17157 23 6 23H19C21.8284 23 23.2426 23 24.1213 22.1213C25 21.2426 25 19.8284 25 17V8.31019C25 6.89624 23.8538 5.75 22.4398 5.75C21.4575 5.75 20.5618 5.18797 20.1345 4.30347L18.9815 1.91667C18.6135 1.15504 18.4296 0.774227 18.1353 0.510532C17.9658 0.35865 17.7716 0.236811 17.5612 0.150263C17.1957 0 16.7728 0 15.927 0H9.07305C8.2272 0 7.80428 0 7.43884 0.150263C7.22835 0.236811 7.03418 0.35865 6.86469 0.510532C6.57042 0.774227 6.38645 1.15504 6.01852 1.91667L4.86547 4.30347C4.43818 5.18797 3.54249 5.75 2.56019 5.75ZM16.0554 12.9375C16.0554 15.074 14.3993 16.6875 12.4999 16.6875C10.6005 16.6875 8.94434 15.074 8.94434 12.9375C8.94434 10.801 10.6005 9.1875 12.4999 9.1875C14.3993 9.1875 16.0554 10.801 16.0554 12.9375ZM18.0554 12.9375C18.0554 16.1131 15.5681 18.6875 12.4999 18.6875C9.43164 18.6875 6.94434 16.1131 6.94434 12.9375C6.94434 9.76186 9.43164 7.1875 12.4999 7.1875C15.5681 7.1875 18.0554 9.76186 18.0554 12.9375Z" fill="white"/>
</svg>
