<svg width="74" height="34" viewBox="0 0 74 34" fill="none" xmlns="http://www.w3.org/2000/svg">
<path fill-rule="evenodd" clip-rule="evenodd" d="M12.2398 16.2487C13.1429 15.8338 14.6071 15.8338 15.5102 16.2487L37 26.1224L58.4898 16.2487C59.3929 15.8338 60.8571 15.8338 61.7602 16.2487C62.6633 16.6636 62.6633 17.3364 61.7602 17.7513L38.6352 28.3763C37.7321 28.7912 36.2679 28.7912 35.3648 28.3763L12.2398 17.7513C11.3367 17.3364 11.3367 16.6636 12.2398 16.2487Z" fill="black" fill-opacity="0.46"/>
<path d="M61.9689 15.7944L61.7607 16.2475L61.9689 15.7944C61.434 15.5486 60.7661 15.4375 60.125 15.4375C59.4839 15.4375 58.816 15.5486 58.2811 15.7944L58.4896 16.2483L58.2811 15.7944L37 25.5721L15.7189 15.7944C15.184 15.5486 14.5161 15.4375 13.875 15.4375C13.2339 15.4375 12.566 15.5486 12.0311 15.7944C11.5249 16.0269 11.0625 16.4265 11.0625 17C11.0625 17.5735 11.5249 17.9731 12.0311 18.2056L35.1561 28.8306C35.691 29.0764 36.3589 29.1875 37 29.1875C37.6411 29.1875 38.309 29.0764 38.8439 28.8306L61.9689 18.2056C62.4751 17.9731 62.9375 17.5735 62.9375 17C62.9375 16.4265 62.4751 16.0269 61.9689 15.7944Z" stroke="black" stroke-opacity="0.46" stroke-linecap="round" stroke-linejoin="round"/>
<path fill-rule="evenodd" clip-rule="evenodd" d="M12.2398 5.6237C13.1429 5.20877 14.6071 5.20877 15.5102 5.6237L37 15.4974L58.4898 5.6237C59.3929 5.20877 60.8571 5.20877 61.7602 5.6237C62.6633 6.03863 62.6633 6.71137 61.7602 7.1263L38.6352 17.7513C37.7321 18.1662 36.2679 18.1662 35.3648 17.7513L12.2398 7.1263C11.3367 6.71137 11.3367 6.03863 12.2398 5.6237Z" fill="black" fill-opacity="0.46"/>
<path d="M61.9689 5.16936L61.7607 5.62252L61.9689 5.16936C61.434 4.92357 60.7661 4.8125 60.125 4.8125C59.4839 4.8125 58.816 4.92357 58.2811 5.16936L58.4896 5.62331L58.2811 5.16936L37 14.9471L15.7189 5.16936C15.184 4.92357 14.5161 4.8125 13.875 4.8125C13.2339 4.8125 12.566 4.92357 12.0311 5.16936C11.5249 5.40194 11.0625 5.80145 11.0625 6.375C11.0625 6.94855 11.5249 7.34806 12.0311 7.58064L35.1561 18.2056C35.691 18.4514 36.3589 18.5625 37 18.5625C37.6411 18.5625 38.309 18.4514 38.8439 18.2056L61.9689 7.58064C62.4751 7.34806 62.9375 6.94855 62.9375 6.375C62.9375 5.80145 62.4751 5.40194 61.9689 5.16936Z" stroke="black" stroke-opacity="0.46" stroke-linecap="round" stroke-linejoin="round"/>
</svg>
