<svg width="11" height="11" viewBox="0 0 11 11" fill="none" xmlns="http://www.w3.org/2000/svg">
<g clip-path="url(#clip0_2268_4292)">
<path d="M5.5016 5.69645C5.39312 5.69645 5.30518 5.6085 5.30518 5.50002C5.30518 5.39153 5.39312 5.30359 5.5016 5.30359" stroke="#8E8989" stroke-linecap="round" stroke-linejoin="round"/>
<path d="M5.50171 5.69645C5.61019 5.69645 5.69814 5.6085 5.69814 5.50002C5.69814 5.39153 5.61019 5.30359 5.50171 5.30359" stroke="#8E8989" stroke-linecap="round" stroke-linejoin="round"/>
<path d="M3.34096 5.69645C3.23248 5.69645 3.14453 5.6085 3.14453 5.50002C3.14453 5.39153 3.23248 5.30359 3.34096 5.30359" stroke="#8E8989" stroke-linecap="round" stroke-linejoin="round"/>
<path d="M3.34106 5.69645C3.44955 5.69645 3.53749 5.6085 3.53749 5.50002C3.53749 5.39153 3.44955 5.30359 3.34106 5.30359" stroke="#8E8989" stroke-linecap="round" stroke-linejoin="round"/>
<path d="M7.66225 5.69645C7.55377 5.69645 7.46582 5.6085 7.46582 5.50002C7.46582 5.39153 7.55377 5.30359 7.66225 5.30359" stroke="#8E8989" stroke-linecap="round" stroke-linejoin="round"/>
<path d="M7.66235 5.69645C7.77084 5.69645 7.85882 5.6085 7.85882 5.50002C7.85882 5.39153 7.77084 5.30359 7.66235 5.30359" stroke="#8E8989" stroke-linecap="round" stroke-linejoin="round"/>
<path d="M5.49862 0.440431C4.5834 0.440716 3.68539 0.68924 2.90024 1.15953C2.1151 1.62983 1.47222 2.30428 1.04008 3.11105C0.607936 3.91782 0.402715 4.82671 0.446274 5.74088C0.489831 6.65507 0.780538 7.54032 1.28743 8.30233L0.438965 10.5598L3.28015 10.046C3.9643 10.3803 4.71509 10.5559 5.47654 10.5597C6.238 10.5635 6.99049 10.3953 7.67792 10.0678C8.36533 9.74027 8.97002 9.26176 9.44671 8.668C9.92348 8.07431 10.2602 7.38061 10.4314 6.63867C10.6028 5.89673 10.6045 5.12569 10.4364 4.38301C10.2683 3.64033 9.93472 2.94518 9.46054 2.34937C8.98636 1.75356 8.3838 1.27246 7.69782 0.941938C7.01183 0.611409 6.26008 0.439981 5.49862 0.440431Z" stroke="#8E8989" stroke-linecap="round" stroke-linejoin="round"/>
</g>
<defs>
<clipPath id="clip0_2268_4292">
<rect width="11" height="11" fill="white"/>
</clipPath>
</defs>
</svg>
