<svg width="21" height="21" viewBox="0 0 21 21" fill="none" xmlns="http://www.w3.org/2000/svg">
<path d="M17.5 10.5C17.5 7.69108 17.5 6.28661 16.8259 5.27772C16.534 4.84096 16.159 4.46596 15.7223 4.17412C14.7134 3.5 13.3089 3.5 10.5 3.5V3.5C7.69108 3.5 6.28661 3.5 5.27772 4.17412C4.84096 4.46596 4.46596 4.84096 4.17412 5.27772C3.5 6.28661 3.5 7.69108 3.5 10.5V15.5C3.5 16.4428 3.5 16.9142 3.79289 17.2071C4.08579 17.5 4.55719 17.5 5.5 17.5H10.5C13.3089 17.5 14.7134 17.5 15.7223 16.8259C16.159 16.534 16.534 16.159 16.8259 15.7223C17.5 14.7134 17.5 13.3089 17.5 10.5V10.5Z" stroke="#262626" stroke-width="2"/>
<path d="M7.875 8.75L13.125 8.75" stroke="#262626" stroke-width="2" stroke-linecap="round" stroke-linejoin="round"/>
<path d="M7.875 12.25H10.5" stroke="#262626" stroke-width="2" stroke-linecap="round" stroke-linejoin="round"/>
</svg>
