<svg width="34" height="34" viewBox="0 0 34 34" fill="none" xmlns="http://www.w3.org/2000/svg">
<path d="M17.0001 19.8333L16.293 20.5405L17.0001 21.2476L17.7072 20.5405L17.0001 19.8333ZM18.0001 7.08334C18.0001 6.53106 17.5524 6.08334 17.0001 6.08334C16.4478 6.08334 16.0001 6.53106 16.0001 7.08334L18.0001 7.08334ZM9.20964 13.4571L16.293 20.5405L17.7072 19.1262L10.6239 12.0429L9.20964 13.4571ZM17.7072 20.5405L24.7905 13.4571L23.3763 12.0429L16.293 19.1262L17.7072 20.5405ZM18.0001 19.8333L18.0001 7.08334L16.0001 7.08334L16.0001 19.8333L18.0001 19.8333Z" fill="white"/>
<path d="M7.08325 22.6667L7.08325 24.0833C7.08325 25.6481 8.35178 26.9167 9.91659 26.9167L24.0833 26.9167C25.6481 26.9167 26.9166 25.6481 26.9166 24.0833V22.6667" stroke="white" stroke-width="2"/>
</svg>
