<svg width="21" height="21" viewBox="0 0 21 21" fill="none" xmlns="http://www.w3.org/2000/svg">
<mask id="path-1-outside-1_2315_2051" maskUnits="userSpaceOnUse" x="2.375" y="3.25" width="15" height="16" fill="black">
<rect fill="white" x="2.375" y="3.25" width="15" height="16"/>
<path d="M11.8125 6.5625L5.64171 12.7333L5.64171 12.7333C5.44706 12.9279 5.34974 13.0253 5.28276 13.1436C5.21579 13.2618 5.18241 13.3954 5.11564 13.6624L4.57711 15.8165C4.48686 16.1776 4.44173 16.3581 4.54182 16.4582C4.6419 16.5583 4.82242 16.5131 5.18344 16.4229L5.18345 16.4229L7.33757 15.8844C7.60463 15.8176 7.73816 15.7842 7.85645 15.7172C7.97474 15.6503 8.07206 15.5529 8.26671 15.3583L14.4375 9.1875C15.0058 8.61916 15.29 8.33499 15.3294 7.98774C15.3379 7.91282 15.3379 7.83718 15.3294 7.76226C15.29 7.41501 15.0058 7.13084 14.4375 6.5625L14.4375 6.56249C13.8692 5.99416 13.585 5.70999 13.2377 5.67059C13.1628 5.66209 13.0872 5.66209 13.0123 5.67059C12.665 5.70999 12.3808 5.99416 11.8125 6.5625L11.8125 6.5625Z"/>
</mask>
<path d="M5.64171 12.7333L4.2275 11.3191L5.64171 12.7333ZM11.8125 6.5625L10.4955 5.05735L10.4454 5.1012L10.3983 5.14829L11.8125 6.5625ZM14.4375 9.1875L13.0233 7.77329V7.77329L14.4375 9.1875ZM8.26671 15.3583L9.68093 16.7725L9.68093 16.7725L8.26671 15.3583ZM5.11564 13.6624L7.05593 14.1475L7.05593 14.1475L5.11564 13.6624ZM4.57711 15.8165L2.63683 15.3315H2.63683L4.57711 15.8165ZM5.18345 16.4229L4.69838 14.4826L4.61124 14.5044L4.52641 14.5339L5.18345 16.4229ZM7.33757 15.8844L6.85251 13.9441L6.8525 13.9441L7.33757 15.8844ZM4.54182 16.4582L5.95603 15.044L5.95603 15.044L4.54182 16.4582ZM5.18344 16.4229L5.66851 18.3632L5.75565 18.3414L5.84048 18.3119L5.18344 16.4229ZM7.85645 15.7172L6.87105 13.9768L6.87105 13.9768L7.85645 15.7172ZM14.4375 6.5625L15.8517 5.14829L15.8289 5.12548L15.8054 5.10343L14.4375 6.5625ZM15.3294 7.76226L13.3422 7.98774V7.98774L15.3294 7.76226ZM15.3294 7.98774L13.3422 7.76226V7.76226L15.3294 7.98774ZM11.8125 6.5625L13.1295 8.06765L13.1796 8.0238L13.2267 7.97671L11.8125 6.5625ZM13.0123 5.67059L13.2377 7.65784L13.2377 7.65784L13.0123 5.67059ZM14.4375 6.56249L13.0233 7.97671L13.0461 7.99951L13.0696 8.02157L14.4375 6.56249ZM13.2377 5.67059L13.0123 7.65784L13.0123 7.65784L13.2377 5.67059ZM5.64171 12.7333L4.2275 11.3191L4.2275 11.3191L5.64171 12.7333ZM5.28276 13.1436L7.02316 14.1289L7.02316 14.1289L5.28276 13.1436ZM7.05593 14.1475L13.2267 7.97671L10.3983 5.14829L4.2275 11.3191L7.05593 14.1475ZM13.0233 7.77329L6.8525 13.9441L9.68093 16.7725L15.8517 10.6017L13.0233 7.77329ZM3.17536 13.1774L2.63683 15.3315L6.5174 16.3016L7.05593 14.1475L3.17536 13.1774ZM5.66852 18.3632L7.82264 17.8246L6.8525 13.9441L4.69838 14.4826L5.66852 18.3632ZM2.63683 15.3315C2.608 15.4468 2.52555 15.7546 2.49759 16.0405C2.4672 16.3511 2.44009 17.1849 3.1276 17.8724L5.95603 15.044C6.22171 15.3097 6.37414 15.6255 6.44144 15.9178C6.50013 16.1728 6.48465 16.3679 6.47858 16.4299C6.47199 16.4974 6.46292 16.529 6.472 16.4881C6.48037 16.4503 6.49288 16.3997 6.5174 16.3016L2.63683 15.3315ZM4.52641 14.5339L4.5264 14.5339L5.84048 18.3119L5.84049 18.3119L4.52641 14.5339ZM4.69838 14.4826C4.60031 14.5071 4.54967 14.5196 4.51194 14.528C4.47095 14.5371 4.50262 14.528 4.57006 14.5214C4.63212 14.5153 4.82723 14.4999 5.08217 14.5586C5.37455 14.6259 5.69035 14.7783 5.95603 15.044L3.1276 17.8724C3.81511 18.5599 4.64887 18.5328 4.95949 18.5024C5.24539 18.4744 5.55322 18.392 5.66851 18.3632L4.69838 14.4826ZM6.8525 13.9441C6.82779 13.9688 6.8067 13.9899 6.78714 14.0093C6.76771 14.0287 6.75172 14.0445 6.73793 14.058C6.72417 14.0715 6.71411 14.0812 6.70672 14.0882C6.70312 14.0916 6.70045 14.0941 6.69861 14.0958C6.69676 14.0975 6.6959 14.0983 6.69592 14.0982C6.69594 14.0982 6.69698 14.0973 6.69895 14.0956C6.70092 14.0939 6.70393 14.0913 6.70791 14.088C6.71586 14.0814 6.72792 14.0716 6.74366 14.0598C6.75955 14.0479 6.77862 14.0343 6.80064 14.0199C6.82276 14.0053 6.84631 13.9908 6.87105 13.9768L8.84184 17.4576C9.25098 17.226 9.56136 16.8921 9.68093 16.7725L6.8525 13.9441ZM7.82264 17.8246C7.98669 17.7836 8.43271 17.6893 8.84185 17.4576L6.87105 13.9768C6.89579 13.9628 6.9203 13.9501 6.94417 13.9386C6.96792 13.9272 6.98938 13.9178 7.00776 13.9103C7.02598 13.9029 7.04053 13.8975 7.05029 13.8941C7.05517 13.8924 7.05894 13.8912 7.06142 13.8904C7.0639 13.8895 7.06524 13.8891 7.06526 13.8891C7.06528 13.8891 7.06418 13.8895 7.06176 13.8902C7.05935 13.8909 7.05584 13.8919 7.05106 13.8932C7.04125 13.8959 7.02778 13.8996 7.00914 13.9044C6.99048 13.9093 6.96868 13.9149 6.9421 13.9216C6.91534 13.9284 6.8864 13.9356 6.85251 13.9441L7.82264 17.8246ZM13.0233 7.97671C13.1699 8.12335 13.2773 8.23086 13.3662 8.32374C13.4554 8.41701 13.4969 8.46547 13.5144 8.48754C13.5312 8.50873 13.4973 8.47022 13.4551 8.38359C13.4074 8.28565 13.3606 8.14984 13.3422 7.98774L17.3167 7.53679C17.2377 6.84062 16.9113 6.33375 16.6492 6.00304C16.4136 5.70577 16.102 5.39861 15.8517 5.14829L13.0233 7.97671ZM15.8517 10.6017C16.102 10.3514 16.4136 10.0442 16.6492 9.74696C16.9113 9.41625 17.2377 8.90938 17.3167 8.21321L13.3422 7.76226C13.3606 7.60016 13.4074 7.46435 13.4551 7.36641C13.4973 7.27978 13.5312 7.24127 13.5144 7.26246C13.4969 7.28453 13.4554 7.33299 13.3662 7.42626C13.2773 7.51914 13.1699 7.62665 13.0233 7.77329L15.8517 10.6017ZM13.3422 7.98774C13.3337 7.91282 13.3337 7.83718 13.3422 7.76226L17.3167 8.21321C17.3422 7.98846 17.3422 7.76154 17.3167 7.53679L13.3422 7.98774ZM13.1295 8.06765L13.1295 8.06765L10.4955 5.05734L10.4955 5.05735L13.1295 8.06765ZM13.2267 7.97671C13.3734 7.83008 13.4809 7.7227 13.5737 7.63381C13.667 7.54455 13.7155 7.5031 13.7375 7.48561C13.7587 7.46882 13.7202 7.50274 13.6336 7.54491C13.5356 7.59258 13.3998 7.63945 13.2377 7.65784L12.7868 3.68334C12.0906 3.76232 11.5837 4.08867 11.253 4.35077C10.9558 4.58637 10.6486 4.89796 10.3983 5.14828L13.2267 7.97671ZM15.8054 5.10343L15.8054 5.10342L13.0696 8.02157L13.0696 8.02157L15.8054 5.10343ZM15.8517 5.14828C15.6014 4.89796 15.2942 4.58637 14.997 4.35077C14.6663 4.08867 14.1594 3.76232 13.4632 3.68334L13.0123 7.65784C12.8502 7.63945 12.7144 7.59258 12.6164 7.54491C12.5298 7.50274 12.4913 7.46882 12.5125 7.48561C12.5345 7.5031 12.583 7.54455 12.6763 7.63381C12.7691 7.7227 12.8766 7.83008 13.0233 7.97671L15.8517 5.14828ZM13.2377 7.65784C13.1628 7.66634 13.0872 7.66634 13.0123 7.65784L13.4632 3.68334C13.2385 3.65784 13.0115 3.65784 12.7868 3.68334L13.2377 7.65784ZM4.2275 11.3191L4.2275 11.3191L7.05593 14.1475L7.05593 14.1475L4.2275 11.3191ZM4.2275 11.3191C4.10793 11.4386 3.77401 11.749 3.54236 12.1582L7.02316 14.1289C7.00915 14.1537 6.9947 14.1772 6.98014 14.1994C6.96565 14.2214 6.95207 14.2405 6.94016 14.2563C6.92837 14.2721 6.91863 14.2841 6.91202 14.2921C6.90871 14.2961 6.90613 14.2991 6.90442 14.3011C6.90271 14.303 6.90178 14.3041 6.90176 14.3041C6.90174 14.3041 6.90252 14.3032 6.90422 14.3014C6.90593 14.2995 6.90842 14.2969 6.91184 14.2933C6.91884 14.2859 6.92852 14.2758 6.942 14.2621C6.9555 14.2483 6.97132 14.2323 6.99066 14.2129C7.01013 14.1933 7.03122 14.1722 7.05593 14.1475L4.2275 11.3191ZM7.05593 14.1475C7.0644 14.1136 7.07164 14.0847 7.07839 14.0579C7.0851 14.0313 7.09068 14.0095 7.09556 13.9909C7.10043 13.9722 7.10407 13.9587 7.1068 13.9489C7.10813 13.9442 7.10914 13.9407 7.10984 13.9382C7.11054 13.9358 7.11088 13.9347 7.11088 13.9347C7.11087 13.9348 7.11046 13.9361 7.10965 13.9386C7.10884 13.9411 7.10758 13.9448 7.10588 13.9497C7.10246 13.9595 7.09713 13.974 7.0897 13.9922C7.0822 14.0106 7.07284 14.0321 7.06141 14.0558C7.04993 14.0797 7.03717 14.1042 7.02316 14.1289L3.54236 12.1582C3.31071 12.5673 3.21637 13.0133 3.17536 13.1774L7.05593 14.1475Z" fill="#FFFEFE" mask="url(#path-1-outside-1_2315_2051)"/>
<path d="M10.9375 6.5625L13.5625 4.8125L16.1875 7.4375L14.4375 10.0625L10.9375 6.5625Z" fill="#FFFEFE"/>
</svg>
