<svg width="24" height="24" viewBox="0 0 24 24" fill="none" xmlns="http://www.w3.org/2000/svg">
<path fill-rule="evenodd" clip-rule="evenodd" d="M11.4697 0.96967C11.7626 0.676777 12.2374 0.676777 12.5303 0.96967L16.4678 4.90717C16.7607 5.20006 16.7607 5.67494 16.4678 5.96783C16.1749 6.26072 15.7001 6.26072 15.4072 5.96783L12 2.56066L8.59283 5.96783C8.29994 6.26072 7.82506 6.26072 7.53217 5.96783C7.23928 5.67494 7.23928 5.20006 7.53217 4.90717L11.4697 0.96967Z" fill="black"/>
<path fill-rule="evenodd" clip-rule="evenodd" d="M12 0.75C12.4142 0.75 12.75 1.08579 12.75 1.5V12C12.75 12.4142 12.4142 12.75 12 12.75C11.5858 12.75 11.25 12.4142 11.25 12V1.5C11.25 1.08579 11.5858 0.75 12 0.75Z" fill="black"/>
<path fill-rule="evenodd" clip-rule="evenodd" d="M4.18934 8.68934C4.47064 8.40804 4.85217 8.25 5.25 8.25H7.5C7.91421 8.25 8.25 8.58579 8.25 9C8.25 9.41421 7.91421 9.75 7.5 9.75L5.25 9.75L5.25 19.5H18.75V9.75H16.5C16.0858 9.75 15.75 9.41421 15.75 9C15.75 8.58579 16.0858 8.25 16.5 8.25H18.75C19.1478 8.25 19.5294 8.40804 19.8107 8.68934C20.092 8.97065 20.25 9.35218 20.25 9.75V19.5C20.25 19.8978 20.092 20.2794 19.8107 20.5607C19.5294 20.842 19.1478 21 18.75 21H5.25C4.85218 21 4.47065 20.842 4.18934 20.5607C3.90804 20.2794 3.75 19.8978 3.75 19.5V9.75C3.75 9.35217 3.90804 8.97064 4.18934 8.68934Z" fill="black"/>
</svg>
