<svg width="32" height="33" viewBox="0 0 32 33" fill="none" xmlns="http://www.w3.org/2000/svg">
<path d="M10.3688 27.125C12.8738 28.41 15.7554 28.7581 18.4943 28.1065C21.2332 27.4548 23.6494 25.8464 25.3073 23.571C26.9653 21.2956 27.756 18.5028 27.537 15.696C27.318 12.8891 26.1038 10.2528 24.113 8.262C22.1222 6.27123 19.4859 5.05696 16.679 4.83798C13.8722 4.61901 11.0794 5.40975 8.80401 7.0677C6.5286 8.72565 4.92016 11.1418 4.26854 13.8807C3.61693 16.6196 3.96499 19.5012 5.25 22.0063L2.625 29.75L10.3688 27.125Z" stroke="#00116A" stroke-width="2" stroke-linecap="round" stroke-linejoin="round"/>
<path d="M10.5 16.625H10.5117" stroke="#00116A" stroke-width="2.5" stroke-linecap="round" stroke-linejoin="round"/>
<path d="M15.75 16.625H15.7617" stroke="#00116A" stroke-width="2.5" stroke-linecap="round" stroke-linejoin="round"/>
<path d="M21 16.625H21.0117" stroke="#00116A" stroke-width="2.5" stroke-linecap="round" stroke-linejoin="round"/>
</svg>
