<svg xmlns="http://www.w3.org/2000/svg" xmlns:xlink="http://www.w3.org/1999/xlink"><symbol id="footermy" viewBox="0 0 31 30"><path stroke="#727272" stroke-linecap="round" stroke-linejoin="round" stroke-width="2" d="M25.5 27.857v-2.762c0-1.465-.602-2.87-1.674-3.906a5.816 5.816 0 0 0-4.04-1.618h-8.572a5.816 5.816 0 0 0-4.04 1.618A5.432 5.432 0 0 0 5.5 25.095v2.762m10-13.809c3.156 0 5.714-2.473 5.714-5.524C21.214 5.474 18.656 3 15.5 3c-3.156 0-5.714 2.473-5.714 5.524 0 3.05 2.558 5.524 5.714 5.524z"/></symbol>
<symbol id="footerboard" viewBox="0 0 32 33"><path stroke="#727272" stroke-linecap="round" stroke-linejoin="round" stroke-width="2" d="M10.369 27.125a11.813 11.813 0 1 0-5.119-5.119L2.625 29.75l7.744-2.625z"/><path stroke="#727272" stroke-linecap="round" stroke-linejoin="round" stroke-width="2.5" d="M10.5 16.625h.012m5.238 0h.012m5.238 0h.012"/></symbol>
<symbol id="footermyprimary" viewBox="0 0 31 30"><path stroke="#00116A" stroke-linecap="round" stroke-linejoin="round" stroke-width="2" d="M25.5 27.857v-2.762c0-1.465-.602-2.87-1.674-3.906a5.816 5.816 0 0 0-4.04-1.618h-8.572a5.816 5.816 0 0 0-4.04 1.618A5.432 5.432 0 0 0 5.5 25.095v2.762m10-13.809c3.156 0 5.714-2.473 5.714-5.524C21.214 5.474 18.656 3 15.5 3c-3.156 0-5.714 2.473-5.714 5.524 0 3.05 2.558 5.524 5.714 5.524z"/></symbol>
<symbol id="footerboardprimary" viewBox="0 0 32 33"><path stroke="#00116A" stroke-linecap="round" stroke-linejoin="round" stroke-width="2" d="M10.369 27.125a11.813 11.813 0 1 0-5.119-5.119L2.625 29.75l7.744-2.625z"/><path stroke="#00116A" stroke-linecap="round" stroke-linejoin="round" stroke-width="2.5" d="M10.5 16.625h.012m5.238 0h.012m5.238 0h.012"/></symbol>
<symbol id="footersearchprimary" viewBox="0 0 25 27"><ellipse cx="11.46" cy="12.79" stroke="#00116A" stroke-width="2" rx="7.29" ry="7.58"/><path stroke="#00116A" stroke-linecap="round" stroke-width="2" d="M20.833 22.543l-3.125-3.25"/></symbol>
<symbol id="footerhomeprimary" viewBox="0 0 26 26"><path stroke="#01126A" stroke-linecap="round" stroke-linejoin="round" stroke-width="1.5" d="M1.5 9.595L13 1.5l11.5 8.095v12.72a2.21 2.21 0 0 1-.748 1.635 2.7 2.7 0 0 1-1.808.678H4.056a2.698 2.698 0 0 1-1.808-.678 2.207 2.207 0 0 1-.748-1.635V9.595z"/><path stroke="#01126A" stroke-linecap="round" stroke-linejoin="round" stroke-width="1.5" d="M9.167 24.627V13.063h7.666v11.564"/></symbol>
<symbol id="footerscan" viewBox="0 0 26 26"><path fill="url(#a)" d="M.44.44h24.72v24.72H.44z"/><defs><pattern id="a" width="1" height="1" patternContentUnits="objectBoundingBox"><use transform="translate(0 -.003) scale(.00685)" xlink:href="#b"/></pattern></defs></symbol>
<symbol id="footersearch" viewBox="0 0 25 27"><ellipse cx="11.46" cy="12.79" stroke="#727272" stroke-width="2" rx="7.29" ry="7.58"/><path stroke="#727272" stroke-linecap="round" stroke-width="2" d="M20.833 22.543l-3.125-3.25"/></symbol>
<symbol id="footerhome" viewBox="0 0 26 26"><path stroke="#727272" stroke-linecap="round" stroke-linejoin="round" stroke-width="1.5" d="M1.5 9.595L13 1.5l11.5 8.095v12.72a2.21 2.21 0 0 1-.748 1.635 2.7 2.7 0 0 1-1.808.678H4.056a2.698 2.698 0 0 1-1.808-.678 2.207 2.207 0 0 1-.748-1.635V9.595z"/><path stroke="#727272" stroke-linecap="round" stroke-linejoin="round" stroke-width="1.5" d="M9.167 24.627V13.063h7.666v11.564"/></symbol>
</svg>