<svg width="21" height="21" viewBox="0 0 21 21" fill="none" xmlns="http://www.w3.org/2000/svg">
<path fill-rule="evenodd" clip-rule="evenodd" d="M4.375 3.5C3.89175 3.5 3.5 3.89175 3.5 4.375V16.625C3.5 17.1082 3.89175 17.5 4.375 17.5H16.625C17.1082 17.5 17.5 17.1082 17.5 16.625V4.375C17.5 3.89175 17.1082 3.5 16.625 3.5H4.375ZM1.75 4.375C1.75 2.92525 2.92525 1.75 4.375 1.75H16.625C18.0747 1.75 19.25 2.92525 19.25 4.375V16.625C19.25 18.0747 18.0747 19.25 16.625 19.25H4.375C2.92525 19.25 1.75 18.0747 1.75 16.625V4.375Z" fill="black"/>
<path fill-rule="evenodd" clip-rule="evenodd" d="M7.4375 7C7.19588 7 7 7.19588 7 7.4375C7 7.67912 7.19588 7.875 7.4375 7.875C7.67912 7.875 7.875 7.67912 7.875 7.4375C7.875 7.19588 7.67912 7 7.4375 7ZM5.25 7.4375C5.25 6.22938 6.22938 5.25 7.4375 5.25C8.64562 5.25 9.625 6.22938 9.625 7.4375C9.625 8.64562 8.64562 9.625 7.4375 9.625C6.22938 9.625 5.25 8.64562 5.25 7.4375Z" fill="black"/>
<path fill-rule="evenodd" clip-rule="evenodd" d="M13.3813 8.13128C13.723 7.78957 14.277 7.78957 14.6187 8.13128L18.9937 12.5063C19.3354 12.848 19.3354 13.402 18.9937 13.7437C18.652 14.0854 18.098 14.0854 17.7563 13.7437L14 9.98744L4.99372 18.9937C4.65201 19.3354 4.09799 19.3354 3.75628 18.9937C3.41457 18.652 3.41457 18.098 3.75628 17.7563L13.3813 8.13128Z" fill="black"/>
</svg>
