<svg width="25" height="21" viewBox="0 0 25 21" fill="none" xmlns="http://www.w3.org/2000/svg">
<g clip-path="url(#clip0_3066_3211)">
<path d="M7.1428 0C6.43241 0 5.75109 0.237053 5.24877 0.65901C4.74645 1.08097 4.46423 1.65327 4.46423 2.25V20.25C4.46423 20.5533 4.68177 20.8267 5.01541 20.9429C5.34905 21.059 5.73307 20.9949 5.98843 20.7804L12.4999 15.3106L19.0114 20.7804C19.2667 20.9949 19.6508 21.059 19.9844 20.9429C20.3182 20.8267 20.5357 20.5533 20.5357 20.25V2.25C20.5357 1.65325 20.2535 1.08097 19.7512 0.65901C19.2489 0.237053 18.5674 0 17.8571 0H7.1428Z" fill="black"/>
</g>
<defs>
<clipPath id="clip0_3066_3211">
<rect width="25" height="21" fill="white"/>
</clipPath>
</defs>
</svg>
