<svg width="16" height="16" viewBox="0 0 16 16" fill="none" xmlns="http://www.w3.org/2000/svg">
<g clip-path="url(#clip0_2207_1533)">
<path d="M11.192 15.0938C10.9777 15.3081 10.687 15.4286 10.3839 15.4286H5.61634C5.31325 15.4286 5.02255 15.3081 4.80823 15.0938L0.906268 11.1919C0.691941 10.9775 0.571533 10.6868 0.571533 10.3837V5.61622C0.571533 5.31312 0.691941 5.02243 0.906268 4.80811L4.80823 0.906146C5.02255 0.691819 5.31325 0.571411 5.61634 0.571411H10.3839C10.687 0.571411 10.9777 0.691819 11.192 0.906146L15.0939 4.80811C15.3082 5.02243 15.4287 5.31312 15.4287 5.61622V10.3837C15.4287 10.6868 15.3082 10.9775 15.0939 11.1919L11.192 15.0938Z" stroke="#FF0000" stroke-linecap="round" stroke-linejoin="round"/>
<path d="M8 4.57141V8.2857" stroke="#FF0000" stroke-linecap="round" stroke-linejoin="round"/>
<path d="M8.00007 11.4286C7.84228 11.4286 7.71436 11.3007 7.71436 11.1429C7.71436 10.9851 7.84228 10.8572 8.00007 10.8572" stroke="#FF0000" stroke-linecap="round" stroke-linejoin="round"/>
<path d="M8 11.4286C8.15779 11.4286 8.28571 11.3007 8.28571 11.1429C8.28571 10.9851 8.15779 10.8572 8 10.8572" stroke="#FF0000" stroke-linecap="round" stroke-linejoin="round"/>
</g>
<defs>
<clipPath id="clip0_2207_1533">
<rect width="16" height="16" fill="white"/>
</clipPath>
</defs>
</svg>
