<svg width="13" height="13" viewBox="0 0 13 13" fill="none" xmlns="http://www.w3.org/2000/svg">
<path fill-rule="evenodd" clip-rule="evenodd" d="M10.1329 2.8669C10.3445 3.07844 10.3445 3.4214 10.1329 3.63293L3.63293 10.1329C3.4214 10.3445 3.07844 10.3445 2.8669 10.1329C2.65537 9.9214 2.65537 9.57844 2.8669 9.3669L9.3669 2.8669C9.57844 2.65537 9.9214 2.65537 10.1329 2.8669Z" fill="white"/>
<path fill-rule="evenodd" clip-rule="evenodd" d="M2.8669 2.8669C3.07844 2.65537 3.4214 2.65537 3.63293 2.8669L10.1329 9.3669C10.3445 9.57844 10.3445 9.9214 10.1329 10.1329C9.9214 10.3445 9.57844 10.3445 9.3669 10.1329L2.8669 3.63293C2.65537 3.4214 2.65537 3.07844 2.8669 2.8669Z" fill="white"/>
</svg>
